<svg xmlns="http://www.w3.org/2000/svg" viewBox="0 0 1000 260" role="img" aria-label="Animated digital DNA code stream">
<style>
svg{shape-rendering:crispEdges} .code{font:14px monospace;fill:#58a6ff;opacity:.45}.bright{fill:#39d9ff;opacity:.9}.strand{fill:none;stroke:#c084fc;stroke-width:4;stroke-dasharray:8 12;animation:flow 3s linear infinite}.strand2{stroke:#58a6ff;animation-delay:-1.5s}.rung{stroke:#4ade80;stroke-width:2;opacity:.55;animation:pulse 1.8s steps(2) infinite}.scan{fill:#39d9ff;opacity:.12;animation:scan 5s linear infinite}@keyframes flow{to{stroke-dashoffset:-80}}@keyframes pulse{50%{opacity:1}}@keyframes scan{from{transform:translateX(-180px)}to{transform:translateX(1180px)}}
</style>
<rect width="1000" height="260" rx="18" fill="#090c12"/>
<g opacity=".22" stroke="#1b2430" stroke-width="2"><path d="M30 45h940M30 85h940M30 125h940M30 165h940M30 205h940"/></g>
<path class="strand" d="M170 30C360 70 360 190 500 230C640 190 640 70 830 30"/><path class="strand strand2" d="M170 230C360 190 360 70 500 30C640 70 640 190 830 230"/>
<g stroke-linecap="square">
<path class="rung" d="M250 65h120M310 105h115M390 145h115M475 185h115M565 145h115M645 105h115M710 65h80"/>
</g>
<g class="code"><text x="48" y="62">0101</text><text x="55" y="102">C++</text><text x="45" y="142">{ }</text><text x="58" y="182">0xFF</text><text x="860" y="62">AI</text><text x="850" y="102">JS</text><text x="858" y="142">&&</text><text x="842" y="182">build()</text><text x="475" y="24" class="bright">CODE_STREAM // ACTIVE</text></g>
<rect class="scan" x="0" y="0" width="140" height="260"/>
</svg>
